   <svg width="16" height="12" viewBox="0 0 16 12" fill="none" xmlns="http://www.w3.org/2000/svg">
                    <path fill-rule="evenodd" clip-rule="evenodd"
                        d="M13.3333 0H2.66666C1.53332 0 0.666656 0.866667 0.666656 2V10C0.666656 11.1333 1.53332 12 2.66666 12H13.3333C14.4667 12 15.3333 11.1333 15.3333 10V2C15.3333 0.866667 14.4667 0 13.3333 0ZM2.66665 1.33333H13.3333C13.6 1.33333 13.8 1.46667 13.9333 1.73333L7.99999 5.86667L2.06665 1.73333C2.19999 1.46667 2.39999 1.33333 2.66665 1.33333ZM1.99999 9.99999C1.99999 10.4 2.26666 10.6667 2.66666 10.6667H13.3333C13.7333 10.6667 14 10.4 14 9.99999V3.26666L8.39999 7.19999C8.26666 7.26666 8.13332 7.33332 7.99999 7.33332C7.86666 7.33332 7.73332 7.26666 7.59999 7.19999L1.99999 3.26666V9.99999Z"
                        fill="black" />
                </svg>