<svg width="45" height="40" viewBox="0 0 45 40" fill="none" xmlns="http://www.w3.org/2000/svg">
<g filter="url(#filter0_d)">
<circle cx="24" cy="20" r="20" fill="white"/>
<path fill-rule="evenodd" clip-rule="evenodd" d="M25.7416 30V20.877H28.8038L29.2623 17.3216H25.7416V15.0518C25.7416 14.0224 26.0275 13.3209 27.5036 13.3209L29.3862 13.3201V10.1401C29.0606 10.0968 27.9431 10 26.6428 10C23.9284 10 22.07 11.6569 22.07 14.6997V17.3216H19V20.877H22.07V30H25.7416Z" fill="white"/>
<mask id="mask0" mask-type="alpha" maskUnits="userSpaceOnUse" x="19" y="10" width="11" height="20">
<path fill-rule="evenodd" clip-rule="evenodd" d="M25.7416 30V20.877H28.8038L29.2623 17.3216H25.7416V15.0518C25.7416 14.0224 26.0275 13.3209 27.5036 13.3209L29.3862 13.3201V10.1401C29.0606 10.0968 27.9431 10 26.6428 10C23.9284 10 22.07 11.6569 22.07 14.6997V17.3216H19V20.877H22.07V30H25.7416Z" fill="white"/>
</mask>
<g mask="url(#mask0)">
<path fill-rule="evenodd" clip-rule="evenodd" d="M4 0H44V40H4V0Z" fill="#002868"/>
</g>
</g>
<defs>
<filter id="filter0_d" x="0" y="0" width="48" height="48" filterUnits="userSpaceOnUse" color-interpolation-filters="sRGB">
<feFlood flood-opacity="0" result="BackgroundImageFix"/>
<feColorMatrix in="SourceAlpha" type="matrix" values="0 0 0 0 0 0 0 0 0 0 0 0 0 0 0 0 0 0 127 0"/>
<feOffset dy="4"/>
<feGaussianBlur stdDeviation="2"/>
<feColorMatrix type="matrix" values="0 0 0 0 0 0 0 0 0 0 0 0 0 0 0 0 0 0 0.25 0"/>
<feBlend mode="normal" in2="BackgroundImageFix" result="effect1_dropShadow"/>
<feBlend mode="normal" in="SourceGraphic" in2="effect1_dropShadow" result="shape"/>
</filter>
</defs>
</svg>
